<svg fill="none" height="260" viewBox="0 0 249 260" width="249" xmlns="http://www.w3.org/2000/svg" xmlns:xlink="http://www.w3.org/1999/xlink"><linearGradient id="a" gradientUnits="userSpaceOnUse" x1="122.22" x2="145.766" y1="13.7402" y2="94.6531"><stop offset="0" stop-color="#5e6294"/><stop offset="1" stop-color="#878bb2"/></linearGradient><g clip-rule="evenodd" fill-rule="evenodd"><path d="m188.376 202.62-65.483 37.807-.255-76.061 65.479-37.804z" fill="#5c74c6"/><path d="m186.903 178.076-.172-50.714-64.093 37.004.172 50.715z" fill="#5670c9"/><path d="m122.638 164.367-65.7428-38.251 65.4838-37.8072 65.738 38.2542z" fill="#ebebf2"/><path d="m122.378 88.3093-64.0928 37.0037 46.5828 30.268 64.093-37.004z" fill="#ebebf2"/><path d="m122.893 240.427-65.7385-38.254-.2596-76.058 65.7431 38.251z" fill="#ef7b4d"/><path d="m109.147 216.62-.2-60.221-52.0527-30.284.2054 60.218z" fill="#ef7b4d"/></g><path d="m186.449 127.525 1.667-.962.259 76.057-65.483 37.807" stroke="#5c74c6" stroke-linecap="round" stroke-linejoin="round" stroke-width="10.996"/><path d="m122.638 164.366.255 76.061-65.7385-38.254-.2596-76.058" stroke="#e67143" stroke-linecap="round" stroke-linejoin="round" stroke-width="10.996"/><path d="m122.638 164.367-65.7428-38.251 65.4838-37.8072 65.738 38.2542z" style="fill-rule:evenodd;clip-rule:evenodd;stroke:#e7e7ee;stroke-width:10.996;stroke-linecap:round;stroke-linejoin:round"/><path d="m155.25 178.565c-2.624-1.527-5.99-.637-7.517 1.987-1.527 2.625-.637 5.99 1.987 7.517l78.008 45.388-13.459 2.368c-2.991.526-4.989 3.377-4.463 6.368.527 2.99 3.377 4.988 6.368 4.462l28.262-4.973c.63-.111 1.228-.329 1.772-.639.816-.464 1.524-1.143 2.03-2.013.891-1.53.959-3.312.342-4.835l-9.759-26.774c-1.04-2.853-4.196-4.322-7.049-3.282-2.852 1.039-4.322 4.195-3.282 7.048l4.622 12.681z" fill="#5e6294"/><path d="m88.0221 177.555c2.4444-1.422 5.579-.593 7.0012 1.851 1.4223 2.445.5936 5.579-1.8508 7.001l-72.6541 42.273 12.5357 2.206c2.7853.49 4.646 3.145 4.1559 5.93-.49 2.785-3.1452 4.646-5.9305 4.156l-26.32272-4.631c-.5868-.103-1.14382-.307-1.64973-.595-.76031-.432-1.41997-1.065-1.89146-1.875-.829149-1.426-.893289-3.085-.31827-4.503l9.08948-24.937c.9685-2.657 3.9076-4.026 6.5647-3.057 2.657.968 4.0259 3.907 3.0574 6.564l-4.3051 11.811z" fill="#5e6294"/></svg>