<svg fill="none" height="226" viewBox="0 0 192 226" width="192" xmlns="http://www.w3.org/2000/svg" xmlns:xlink="http://www.w3.org/1999/xlink"><linearGradient id="a" gradientUnits="userSpaceOnUse" x1="108.694" x2="134.107" y1="14.7603" y2="102.087"><stop offset="0" stop-color="#5e6294"/><stop offset="1" stop-color="#878bb2"/></linearGradient><linearGradient id="b" gradientUnits="userSpaceOnUse" x1="-32084" x2="41904.5" y1="21347.9" y2="21347.9"><stop offset="0" stop-color="#d6e6fd"/><stop offset="1" stop-color="#d2e3fd"/></linearGradient><linearGradient id="c" gradientUnits="userSpaceOnUse" x1="-25204.1" x2="40569.5" y1="2524.3" y2="2524.3"><stop offset="0" stop-color="#373282"/><stop offset="1" stop-color="#2e419b"/></linearGradient><linearGradient id="d" gradientUnits="userSpaceOnUse" x1="161.013" x2="126.898" y1="188.139" y2="215.46"><stop offset="0" stop-color="#ef7b4d"/><stop offset="1" stop-color="#ff8f62"/></linearGradient><linearGradient id="e" gradientUnits="userSpaceOnUse" x1="39.1074" x2="39.1074" y1="226.441" y2="170.409"><stop offset="0" stop-color="#5c75c9"/><stop Foffset="1" stop-color="#d2e3fd"/></linearGradient><linearGradient id="f"><stop offset="0" stop-color="#5c75c9"/><stop offset="1" stop-color="#2e419b"/></linearGradient><linearGradient id="g" gradientUnits="userSpaceOnUse" x1="28.3561" x2="28.3561" xlink:href="#f" y1="122.239" y2="284.042"/><linearGradient id="h" gradientUnits="userSpaceOnUse" x1="7062.64" x2="7062.64" xlink:href="#f" y1="8769.82" y2="17613.6"/><linearGradient id="i" gradientUnits="userSpaceOnUse" x1="163.193" x2="163.193" y1="229.579" y2="149.473"><stop offset="0" stop-color="#373282" stop-opacity="0"/><stop offset="1" stop-color="#2e419b"/></linearGradient>
<path d="m191.181 224.844h-45.743l8.828-105.927h21.653z" fill="#5c75c9"/><path d="m175.718 118.916-7.25 71.998-.245 2.435-.669 6.662-1.054 10.476c-.397 3.935-2.238 7.582-5.167 10.234-2.929 2.653-6.738 4.122-10.687 4.123h-126.8461l9.201-91.582c.3967-3.935 2.2388-7.583 5.1691-10.236s6.74-4.121 10.6902-4.121z" fill="url(#b)"/><path d="m48.8549 118.917h126.8631l-1.969 19.544h-141.2664l.5242-5.21c.3992-3.931 2.2413-7.573 5.1692-10.221 2.928-2.649 6.7334-4.114 10.6789-4.113z" fill="url(#c)"/><path d="m168.24 193.349-.669 6.662-1.054 10.476c-.397 3.935-2.238 7.582-5.167 10.235-2.929 2.652-6.738 4.121-10.687 4.122h-17.655z" fill="#ef7b4d"/><g opacity=".71"><path d="m56.1264 163.524c4.6227 0 8.3702-3.753 8.3702-8.382s-3.7475-8.382-8.3702-8.382-8.3702 3.753-8.3702 8.382 3.7475 8.382 8.3702 8.382z" fill="#a1bff1" opacity=".71"/><path d="m86.2501 163.524c4.6227 0 8.3702-3.753 8.3702-8.382 0-4.63-3.7475-8.382-8.3702-8.382s-8.3702 3.752-8.3702 8.382c0 4.629 3.7475 8.382 8.3702 8.382z" fill="#fff" opacity=".71"/><path d="m117.049 163.524c4.622 0 8.37-3.753 8.37-8.382 0-4.63-3.748-8.382-8.37-8.382-4.623 0-8.371 3.752-8.371 8.382 0 4.629 3.748 8.382 8.371 8.382z" fill="#a1bff1" opacity=".71"/><path d="m148.187 163.524c4.623 0 8.37-3.753 8.37-8.382 0-4.63-3.747-8.382-8.37-8.382s-8.37 3.752-8.37 8.382c0 4.629 3.747 8.382 8.37 8.382z" fill="#fff" opacity=".71"/></g><g opacity=".71"><path d="m51.8215 188.547c4.6227 0 8.3701-3.753 8.3701-8.382 0-4.63-3.7474-8.382-8.3701-8.382s-8.3702 3.752-8.3702 8.382c0 4.629 3.7475 8.382 8.3702 8.382z" fill="#fff" opacity=".71"/><path d="m81.9396 188.547c4.6227 0 8.3702-3.753 8.3702-8.382 0-4.63-3.7475-8.382-8.3702-8.382s-8.3701 3.752-8.3701 8.382c0 4.629 3.7474 8.382 8.3701 8.382z" fill="#a1bff1" opacity=".71"/><path d="m112.738 188.547c4.623 0 8.37-3.753 8.37-8.382 0-4.63-3.747-8.382-8.37-8.382s-8.37 3.752-8.37 8.382c0 4.629 3.747 8.382 8.37 8.382z" fill="#fff" opacity=".71"/><path d="m143.877 188.547c4.622 0 8.37-3.753 8.37-8.382 0-4.63-3.748-8.382-8.37-8.382-4.623 0-8.371 3.752-8.371 8.382 0 4.629 3.748 8.382 8.371 8.382z" fill="#a1bff1" opacity=".71"/></g><g opacity=".71"><path d="m45.9384 214.396c4.6227 0 8.3702-3.753 8.3702-8.382s-3.7475-8.382-8.3702-8.382-8.3702 3.753-8.3702 8.382 3.7475 8.382 8.3702 8.382z" fill="#a1bff1" opacity=".71"/><path d="m76.0564 214.395c4.6228 0 8.3702-3.753 8.3702-8.382s-3.7474-8.382-8.3702-8.382c-4.6227 0-8.3701 3.753-8.3701 8.382s3.7474 8.382 8.3701 8.382z" fill="#fff" opacity=".71"/><path d="m106.855 214.395c4.623 0 8.37-3.753 8.37-8.382s-3.747-8.382-8.37-8.382-8.3703 3.753-8.3703 8.382 3.7473 8.382 8.3703 8.382z" fill="#a1bff1" opacity=".71"/></g><path d="m168.268 193.321-.028.028-35.232 31.495v-25.565c0-1.579.626-3.094 1.741-4.211s2.627-1.746 4.204-1.747z" fill="url(#d)"/><path d="m168.24 193.349-.669 6.662-27.776 24.833h-6.787z" fill="#ef7b4d" opacity=".35"/><path d="m39.1074 225.101c15.639 0 28.3169-12.696 28.3169-28.357s-12.6779-28.357-28.3169-28.357-28.3169 12.696-28.3169 28.357 12.6779 28.357 28.3169 28.357z" fill="url(#e)" opacity=".36"/><path d="m28.3561 225.458c15.639 0 28.3169-12.696 28.3169-28.357s-12.6779-28.356-28.3169-28.356c-15.6391 0-28.3169765 12.695-28.3169765 28.356s12.6778765 28.357 28.3169765 28.357z" fill="url(#g)"/><path d="m29.5607 203.166c2.7287 0 4.9407-2.215 4.9407-4.948 0-2.732-2.212-4.947-4.9407-4.947s-4.9407 2.215-4.9407 4.947c0 2.733 2.212 4.948 4.9407 4.948z" fill="#2e419b" opacity=".85"/><path d="m30.3647 196.437.9779.979 13.0635-13.082-.9779-.979z" fill="#2e419b" opacity=".85"/><path d="m54.8384 197.732c-.0037 6.673-2.3938 13.124-6.7372 18.184-4.3434 5.061-10.3529 8.396-16.9401 9.403 4.4817-.446 8.7928-1.955 12.5752-4.404 3.7825-2.448 6.9272-5.764 9.1732-9.673 2.2459-3.91 3.5284-8.299 3.7408-12.804s-.6513-8.996-2.5195-13.1c-1.8681-4.104-4.6868-7.702-8.2221-10.496-3.5353-2.795-7.6851-4.704-12.105-5.57-4.4199-.867-8.9824-.665-13.3088.589-4.3263 1.253-8.2917 3.522-11.56692 6.618 4.05472-3.442 9.00752-5.651 14.27452-6.368 5.2671-.717 10.6289.089 15.4538 2.323 4.8248 2.233 8.9115 5.802 11.7786 10.284 2.867 4.482 4.3949 9.692 4.4035 15.014z" fill="url(#h)"/><path d="m13.5052 213.438 1.8375 1.84 13.4933-13.512-1.8375-1.841z" fill="#2e419b" opacity=".85"/><path d="m17.752 187.235-1.806 1.809 8.6433 8.655 1.806-1.808z" fill="#2e419b" opacity=".85"/><path d="m28.3616 202.005c2.7286 0 4.9407-2.215 4.9407-4.948 0-2.732-2.2121-4.948-4.9407-4.948-2.7287 0-4.9407 2.216-4.9407 4.948 0 2.733 2.212 4.948 4.9407 4.948z" fill="#fff"/><path d="m12.1275 212.057-.0316-.032 13.4933-13.512 1.8375 1.84-11.6873 11.704c-.479.479-1.1286.749-1.806.749s-1.327-.27-1.8059-.749z" fill="#fff"/><path d="m17.2717 187.715c.2371-.237.5187-.426.8285-.554.3099-.129.642-.195.9774-.195s.6675.066.9774.195c.3098.128.5914.317.8286.554l6.8373 6.847-1.8059 1.809z" fill="#fff"/><path d="m29.4462 195.513.9779.98 13.0635-13.082-.9779-.979z" fill="#fff"/><path d="m175.718 118.917v99.053c0 1.823-.723 3.571-2.011 4.86-1.287 1.29-3.033 2.014-4.854 2.014h-18.19c3.949-.001 7.758-1.47 10.687-4.123 2.929-2.652 4.77-6.299 5.167-10.234l1.723-17.138z" fill="url(#i)" opacity=".51"/></svg>