<svg viewBox="0 0 155 155" fill="none" xmlns="http://www.w3.org/2000/svg"><circle cx="74" cy="14" r="12" fill="#9d15aa"/><circle cx="44" cy="44" r="12" fill="#159328"/><circle cx="104" cy="44" r="12" fill="#1381f7"/><circle cx="14" cy="74" r="12" fill="#1381f7"/><circle cx="74" cy="74" r="12" fill="#d6cc15"/><circle cx="134" cy="74" r="14" fill="#fff"/><circle cx="44" cy="104" r="14" fill="#fff"/><circle cx="104" cy="104" r="14" fill="#fff"/><circle cx="74" cy="134" r="14" fill="#fff"/><path d="M58 104q1 15 16 16l-14 14q-1-15-16-16zM74 120q15 2.5 16-16l14 14q-15 1-16 16zM104 90q15-1 16-16l14 14q-15 1-16 16z" fill="#fff"/></svg>