<svg fill="none" height="296" viewBox="0 0 299 296" width="299" xmlns="http://www.w3.org/2000/svg" xmlns:xlink="http://www.w3.org/1999/xlink"><linearGradient id="a"><stop offset="0" stop-color="#eb5795"/><stop offset="1" stop-color="#eb5795" stop-opacity="0"/></linearGradient><linearGradient id="b" gradientUnits="userSpaceOnUse" x1="148.028" x2="279.72" xlink:href="#a" y1="144.788" y2="276.48"/><linearGradient id="c" gradientUnits="userSpaceOnUse" x1="183.87" x2="255.144" xlink:href="#a" y1="182.047" y2="253.321"/><linearGradient id="d" gradientUnits="userSpaceOnUse" x1="174.583" x2="246.716" xlink:href="#a" y1="168.511" y2="240.644"/><linearGradient id="e" gradientUnits="userSpaceOnUse" x1="164.04" x2="235.314" xlink:href="#a" y1="166.466" y2="237.74"/><linearGradient id="f" gradientUnits="userSpaceOnUse" x1="44417.9" x2="48501.3" y1="24478.3" y2="20394.9"><stop offset="0" stop-color="#d6e6fd"/><stop offset="1" stop-color="#d2e3fd"/></linearGradient><linearGradient id="g" gradientUnits="userSpaceOnUse" x1="78.3843" x2="83.9169" y1="67.8569" y2="86.8688"><stop offset="0" stop-color="#5e6294"/><stop offset="1" stop-color="#878bb2"/></linearGradient><linearGradient id="h"><stop offset="0" stop-color="#5c75c9"/><stop offset="1" stop-color="#2e419b"/></linearGradient><linearGradient id="i" gradientUnits="userSpaceOnUse" x1="165.863" x2="68.6036" xlink:href="#h" y1="229.925" y2="132.666"/><linearGradient id="j" gradientUnits="userSpaceOnUse" x1="33207.5" x2="20402.4" xlink:href="#h" y1="24757.8" y2="11952.6"/><linearGradient id="k" gradientUnits="userSpaceOnUse" x1="16781.9" x2="18099" y1="344.55" y2="1661.68"><stop offset="0" stop-color="#373282"/><stop offset=".44" stop-color="#323a8f"/><stop offset="1" stop-color="#2e419b"/></linearGradient><linearGradient id="l" gradientUnits="userSpaceOnUse" x1="24165.9" x2="17955.8" xlink:href="#h" y1="18502" y2="12291.9"/><linearGradient id="m" gradientUnits="userSpaceOnUse" x1="29315" x2="20588.7" xlink:href="#h" y1="22861.6" y2="14135.3"/><linearGradient id="n" gradientUnits="userSpaceOnUse" x1="185.437" x2="23.0931" y1="209.777" y2="47.4329"><stop offset="0" stop-color="#5c75c9"/><stop offset="1" stop-color="#d2e3fd"/></linearGradient><mask id="o" height="31" maskUnits="userSpaceOnUse" width="31" x="62" y="61"><path d="m88.2841 87.3993c5.9828-5.9828 5.9828-15.683 0-21.6658-5.9829-5.9829-15.683-5.9829-21.6658 0-5.9829 5.9828-5.9829 15.683 0 21.6658 5.9828 5.9829 15.6829 5.9829 21.6658 0z" fill="#fff"/></mask><g stroke-linecap="round"><path d="m216.688 213.448 63.032 63.032" opacity=".9" stroke="url(#b)" stroke-width="37.3291"/><path d="m190.483 188.66 58.783 58.783" opacity=".9" stroke="url(#c)" stroke-width="3.00476"/><path d="m181.276 175.204 59.491 59.491" opacity=".9" stroke="url(#d)" stroke-width="3.00476"/><path d="m170.653 173.079 58.783 58.783" opacity=".9" stroke="url(#e)" stroke-width="3.00476"/></g><path d="m237.666 127.103-109.672 109.672-42.0701-58.467c-9.2369-12.875-13.5995-28.613-12.3095-44.406s8.1486-30.615 19.3525-41.8201c11.2051-11.2064 26.0271-18.0672 41.8221-19.3584 15.794-1.2911 31.534 3.0714 44.41 12.3092z" fill="#5c74c6"/><path d="m108.339 56.9547 108.498 108.4973-50.493 50.494-108.4982-108.498c-10.2189-10.2209-17.7741-22.7929-22.003-36.6134l-11.6072-37.9683c-.4043-1.3224-.4412-2.7299-.1067-4.0717.3345-1.3417 1.0278-2.5671 2.0056-3.5449s2.2032-1.6711 3.545-2.0057c1.3417-.3345 2.7492-.2976 4.0716.1068l37.9745 11.6009c13.8206 4.2289 26.3926 11.7841 36.6134 22.003z" fill="url(#f)"/><path d="m75.0222 124.624 67.7448 96.666 14.461-14.46z" fill="url(#i)" opacity=".17"/><path d="m125.515 74.1309 96.666 67.7451-14.46 14.46z" fill="url(#j)" opacity=".43"/><path d="m231.154 201.872-26.293 26.293c-.582.582-1.284 1.03-2.056 1.312-.773.283-1.599.393-2.419.324-.82-.07-1.615-.318-2.329-.726-.714-.409-1.331-.969-1.806-1.641l-17.12-24.276 27.041-27.041 24.27 17.126c.673.477 1.234 1.095 1.644 1.812.409.717.656 1.514.724 2.337.067.822-.046 1.65-.332 2.424s-.738 1.476-1.324 2.056z" fill="url(#k)"/><path d="m109.463 108.578c2.952-2.952 2.952-7.738 0-10.6897-2.952-2.9518-7.738-2.9518-10.6894 0-2.9518 2.9517-2.9518 7.7377 0 10.6897 2.9514 2.951 7.7374 2.951 10.6894 0z" fill="#a1bff1"/><path d="m122.025 121.14c1.966-1.966 1.966-5.152 0-7.118-1.965-1.965-5.152-1.965-7.118 0-1.965 1.966-1.965 5.152 0 7.118 1.966 1.966 5.153 1.966 7.118 0z" fill="#5c74c6"/><path d="m203.419 178.87-6.344 6.344-67.332-57.206z" fill="url(#l)" opacity=".19"/><path d="m125.341 123.607 61.532 74.981c.842 1.047 1.894 1.904 3.09 2.517 1.195.613 2.506.967 3.847 1.04 1.341.072 2.683-.139 3.937-.619 1.255-.481 2.394-1.22 3.343-2.17.95-.949 1.689-2.088 2.169-3.342.481-1.254.691-2.596.618-3.937-.073-1.34-.428-2.651-1.042-3.845-.613-1.195-1.472-2.247-2.519-3.087z" fill="url(#m)"/><path d="m176.771 197.352c2.129 1.33 4.433 1.411 6.225 1.942l-16.652 16.652-108.4982-108.498c-10.2189-10.2209-17.774-22.7929-22.003-36.6135l-11.6071-37.9682c-.4145-1.3245-.4554-2.7376-.1183-4.0838s1.0392-2.5733 2.0289-3.5461c10.2889 22.2771 22.4255 43.6534 36.2824 63.9048 31.0003 45.2738 66.1903 78.0908 114.3423 108.2108z" fill="url(#n)" opacity=".23"/></svg>