<svg fill="none" height="527" viewBox="0 0 304 527" width="304" xmlns="http://www.w3.org/2000/svg" xmlns:xlink="http://www.w3.org/1999/xlink">
<linearGradient id="a">
    <stop offset="0" stop-color="#eb5795"/>
    <stop offset="1" stop-color="#eb5795" stop-opacity="0"/>
</linearGradient>
<linearGradient id="b" gradientUnits="userSpaceOnUse" x1="14.3033" x2="14.3033" xlink:href="#a" y1="353.83" y2="460.373"/>
<linearGradient id="c" gradientUnits="userSpaceOnUse" x1="293.809" x2="293.809" xlink:href="#a" y1="355.974" y2="462.517"/>
<linearGradient id="d">
    <stop offset="0" stop-color="#5e6294"/>
    <stop offset="1" stop-color="#5e6294" stop-opacity="0"/>
</linearGradient>
<linearGradient id="e" gradientUnits="userSpaceOnUse" x1="56.0414" x2="56.0414" xlink:href="#d" y1="309.346" y2="404.74"/>
<linearGradient id="f" gradientUnits="userSpaceOnUse" x1="252.071" x2="252.071" xlink:href="#d" y1="311.49" y2="406.884"/>
<linearGradient id="g" gradientUnits="userSpaceOnUse" x1="69.2223" x2="69.2223" xlink:href="#d" y1="423.303" y2="478.949"/>
<linearGradient id="h" gradientUnits="userSpaceOnUse" x1="238.89" x2="238.89" xlink:href="#d" y1="425.447" y2="481.093"/>
<linearGradient id="i" gradientUnits="userSpaceOnUse" x1="207.792" x2="207.792" xlink:href="#a" y1="-213.909" y2="515.808"/>
<linearGradient id="j" gradientUnits="userSpaceOnUse" x1="152.596" x2="152.596" xlink:href="#a" y1="253.829" y2="462.285"/>
<linearGradient id="k" gradientUnits="userSpaceOnUse" x1="164.596" x2="164.596" xlink:href="#a" y1="220.454" y2="431.422"/>
<linearGradient id="l" gradientUnits="userSpaceOnUse" x1="140.596" x2="140.596" xlink:href="#a" y1="202.045" y2="410.502"/>
<linearGradient id="m" gradientUnits="userSpaceOnUse" x1="151.58" x2="215.287" y1="34.8125" y2="253.731">
    <stop offset="0" stop-color="#5e6294"/>
    <stop offset="1" stop-color="#878bb2"/>
</linearGradient>
<g stroke-linecap="round">
    <path d="m14.3033 363.716v87.87" opacity=".9" stroke="url(#b)" stroke-width="12.0822"/>
    <path d="m293.809 365.859v87.871" opacity=".9" stroke="url(#c)" stroke-width="12.0822"/>
    <path d="m56.0414 319.231v79.084" opacity=".5" stroke="url(#e)" stroke-width="6.59026"/>
    <path d="m252.071 321.375v79.084" opacity=".5" stroke="url(#f)" stroke-width="12.0822"/>
    <path d="m69.2223 429.069v46.132" opacity=".5" stroke="url(#g)" stroke-width="12.0822"/>
    <path d="m238.89 431.213v46.132" opacity=".5" stroke="url(#h)" stroke-width="6.59026"/>
</g>
<circle cx="223.957" cy="329.482" fill="#cc4f83" r="2.74594"/>
<circle cx="30.2302" cy="321.977" fill="#5e6294" r="2.74594"/>
<circle cx="43.4105" cy="409.848" fill="#cc4f83" r="2.74594"/>
<circle cx="265.801" cy="420.778" fill="#5e6294" r="2.74594"/>
<circle cx="299.85" cy="340.597" fill="#5e6294" r="2.74594"/>
<path clip-rule="evenodd" d="m78 526.426v-430h184v475z" fill="url(#i)" fill-rule="evenodd" opacity=".5"/>
<path d="m152.596 273.17v171.923" opacity=".9" stroke="url(#j)" stroke-linecap="round" stroke-width="12"/>
<path d="m164.596 240.029v173.994" opacity=".9" stroke="url(#k)" stroke-linecap="round" stroke-width="12"/>
<path d="m140.596 221.387v171.922" opacity=".9" stroke="url(#l)" stroke-linecap="round" stroke-width="12"/>


<circle cx="214" cy="134" r="14" fill="white"/>
<circle cx="124" cy="164" r="14" fill="white"/>
<circle cx="184" cy="164" r="14" fill="white"/>
<circle cx="154" cy="194" r="14" fill="white"/>
<path d="M 138 164 Q 139 179 154 180 Q 154 180 140 194 L 140 194 Q 139 179 124 178 z" stroke-width="0" fill="white"/>
<path d="M 154 180 Q 169 182.5 170 164 Q 170 164 184 178 L 184 178 Q 169 179 168 194 z" stroke-width="0" fill="white"/>
<path d="M 184 150 Q 199 149 200 134 Q 200 134 214 148 L 214 148 Q 199 149 198 164 z" stroke-width="0" fill="white"/>

</svg>